<svg width="652" height="400" viewBox="0 0 652 400" fill="none" xmlns="http://www.w3.org/2000/svg">
<rect width="652" height="400" fill="#1E1E1E"/>
<rect width="652" height="400" fill="white"/>
<circle cx="201" cy="199" r="125" fill="white"/>
<circle cx="201" cy="200" r="105" fill="#26773B"/>
<ellipse cx="210.5" cy="200.5" rx="96.5" ry="91.5" fill="white"/>
<rect x="86" y="177" width="91" height="64" fill="white"/>
<path d="M97.7953 223.787C93.2989 204.183 94.8858 183.313 102.377 163.535L120.347 168.175C114.076 184.732 112.747 202.204 116.512 218.616L97.7953 223.787Z" fill="#26773B"/>
<circle cx="214" cy="200" r="80" fill="#F69220"/>
<ellipse cx="49.6462" cy="5.97952" rx="49.6462" ry="5.97952" transform="matrix(0.170229 -0.985405 -0.985405 -0.170229 299.784 278.879)" fill="white"/>
<path d="M294 200C294 221.217 285.571 241.566 270.569 256.569C255.566 271.571 235.217 280 214 280C192.783 280 172.434 271.571 157.431 256.569C142.429 241.566 134 221.217 134 200L214 200H294Z" fill="white"/>
<path d="M294.099 199.659C291.388 202.162 280.784 204.039 264.62 204.88C248.457 205.72 228.058 205.453 207.91 204.139C187.763 202.825 169.518 200.57 157.189 197.872C144.86 195.173 139.456 192.251 142.167 189.749L218.133 194.704L294.099 199.659Z" fill="#F69220"/>
<path d="M134.468 199.264C134.558 197.585 139.378 196.23 147.869 195.496C156.36 194.761 167.825 194.708 179.743 195.349C191.66 195.989 203.054 197.269 211.417 198.909C219.78 200.548 224.428 202.412 224.338 204.091L179.403 201.677L134.468 199.264Z" fill="#F69220"/>
<path d="M252.941 205.384C250.904 206.28 242.773 206.818 230.336 206.88C217.899 206.942 202.175 206.522 186.623 205.713C171.071 204.904 156.966 203.772 147.409 202.567C137.852 201.361 133.628 200.18 135.665 199.284L194.303 202.334L252.941 205.384Z" fill="white"/>
<ellipse cx="75.8251" cy="5.53417" rx="75.8251" ry="5.53417" transform="matrix(0.996617 0.0821805 0.0821805 -0.996617 132.516 204.372)" fill="white"/>
<path d="M216.722 272.889C206.404 270.469 192.256 269.176 176.04 269.172C159.825 269.168 142.258 270.453 125.527 272.867L131.608 278.292C143.469 276.58 155.923 275.669 167.418 275.672C178.914 275.675 188.944 276.592 196.259 278.308L216.722 272.889Z" fill="#26773B"/>
<path d="M194.414 277.562C203.677 279.155 216.711 279.598 231.515 278.825C246.32 278.051 262.076 276.104 276.366 273.281L267.233 269.37C257.981 271.198 247.778 272.459 238.192 272.96C228.606 273.461 220.166 273.174 214.168 272.143L194.414 277.562Z" fill="#26773B"/>
<ellipse cx="225.703" cy="285.219" rx="45" ry="8" transform="rotate(-10.7048 225.703 285.219)" fill="#26773B"/>
<ellipse cx="79.2287" cy="28.8258" rx="79.2287" ry="28.8258" transform="matrix(0.999997 -0.00255465 -0.00255465 -0.999997 152.147 276.056)" fill="white"/>
<ellipse cx="189.586" cy="282.61" rx="45" ry="8" transform="rotate(5.93512 189.586 282.61)" fill="#26773B"/>
<ellipse cx="232.685" cy="275.765" rx="47.2723" ry="6.27119" transform="rotate(-7.96935 232.685 275.765)" fill="#26773B"/>
<ellipse cx="214.339" cy="279.548" rx="66.5165" ry="10.5248" transform="rotate(-9.66975 214.339 279.548)" fill="#26773B"/>
<ellipse cx="150.472" cy="270.089" rx="29.8047" ry="2.48266" transform="rotate(5.03576 150.472 270.089)" fill="#26773B"/>
<ellipse cx="172.665" cy="271.883" rx="51.999" ry="3.49804" transform="rotate(4.73202 172.665 271.883)" fill="#26773B"/>
<ellipse cx="111.885" cy="23.7555" rx="111.885" ry="23.7555" transform="matrix(0.999739 0.0228269 0.0228269 -0.999739 101.194 269.909)" fill="white"/>
<ellipse cx="232.5" cy="221" rx="59.5" ry="19" fill="white"/>
<ellipse cx="187.582" cy="264.635" rx="15.4565" ry="2" transform="rotate(6.11617 187.582 264.635)" fill="white"/>
<ellipse cx="218.82" cy="181.388" rx="77.4966" ry="21.8633" transform="rotate(13.7937 218.82 181.388)" fill="#F69220"/>
<rect x="239" y="212" width="3" height="20" fill="#26773B"/>
<path d="M233 215.399C233 216.835 236.358 218 240.5 218C244.642 218 248 216.835 248 215.399C248 213.962 244.292 161 240.15 161C236.008 161 233 213.962 233 215.399Z" fill="#26773B"/>
<rect x="96" y="201" width="20" height="30" fill="#26773B"/>
<path d="M164.777 225.263C164.707 228.446 170.91 231.654 182.191 234.269C193.472 236.884 209.034 238.722 225.878 239.428C242.722 240.133 259.657 239.657 273.422 238.091C287.186 236.525 296.807 233.98 300.43 230.946L233.397 226.769L164.777 225.263Z" fill="#26773B"/>
<path d="M167.446 242.209C167.803 245.373 174.38 247.721 185.91 248.801C197.44 249.882 213.107 249.618 229.893 248.061C246.68 246.504 263.399 243.764 276.83 240.368C290.26 236.972 299.453 233.161 302.637 229.669L235.649 234.51L167.446 242.209Z" fill="#26773B"/>
<ellipse cx="119.328" cy="197.751" rx="5.5" ry="33.5" transform="rotate(6.39274 119.328 197.751)" fill="white"/>
<path d="M202.267 224.82C190.542 219.917 174.571 216.847 156.343 215.993C138.114 215.139 118.434 216.538 99.7523 220.017L106.871 230.115C120.115 227.649 134.067 226.657 146.989 227.263C159.912 227.868 171.234 230.044 179.546 233.52L202.267 224.82Z" fill="#26773B"/>
<ellipse cx="125.588" cy="234.062" rx="5.5" ry="33.5" transform="rotate(90.9624 125.588 234.062)" fill="white"/>
<ellipse cx="90.5" cy="196.5" rx="5.5" ry="33.5" transform="rotate(2.19232 90.5 196.5)" fill="white"/>
<ellipse cx="156.41" cy="218.162" rx="31.3321" ry="2.92961" transform="rotate(0.52088 156.41 218.162)" fill="#26773B"/>
<ellipse cx="282.918" cy="221.32" rx="29.3537" ry="9.28706" transform="rotate(5.66926 282.918 221.32)" fill="white"/>
<ellipse cx="188.775" cy="218.089" rx="34.6184" ry="3.91245" transform="rotate(16.474 188.775 218.089)" fill="white"/>
<ellipse cx="188.775" cy="218.089" rx="34.6184" ry="3.91245" transform="rotate(16.474 188.775 218.089)" fill="white"/>
<ellipse cx="192.989" cy="223.905" rx="42.9728" ry="4.21692" transform="rotate(10.9818 192.989 223.905)" fill="#26773B"/>
<rect x="179" y="202" width="4" height="17" fill="#26773B"/>
<path d="M172 202.81C172 204.019 176.029 205 181 205C185.971 205 190 204.019 190 202.81C190 201.6 185.551 157 180.58 157C175.609 157 172 201.6 172 202.81Z" fill="#26773B"/>
<ellipse cx="190.307" cy="238.569" rx="34.6184" ry="3.91245" transform="rotate(16.474 190.307 238.569)" fill="white"/>
<ellipse cx="176.307" cy="244.569" rx="34.6184" ry="3.91245" transform="rotate(16.474 176.307 244.569)" fill="white"/>
<ellipse cx="203.291" cy="242.565" rx="91.8039" ry="9.58884" transform="rotate(6.91065 203.291 242.565)" fill="white"/>
<rect x="267" y="209" width="5" height="23" fill="#26773B"/>
<path d="M261 211.669C261 213.509 264.582 215 269 215C273.418 215 277 213.509 277 211.669C277 209.829 273.045 142 268.627 142C264.208 142 261 209.829 261 211.669Z" fill="#26773B"/>
<rect x="151" y="197" width="3" height="20" fill="#26773B"/>
<path d="M145 200.627C145 201.938 148.358 203 152.5 203C156.642 203 160 201.938 160 200.627C160 199.316 156.292 151 152.15 151C148.008 151 145 199.316 145 200.627Z" fill="#26773B"/>
<ellipse cx="161.269" cy="235.173" rx="51.527" ry="7" transform="rotate(5.26587 161.269 235.173)" fill="white"/>
<ellipse cx="238.412" cy="242.72" rx="79.457" ry="8.73632" transform="rotate(1.55908 238.412 242.72)" fill="white"/>
<ellipse cx="175.387" cy="236.248" rx="65.6847" ry="8.3969" transform="rotate(5.63978 175.387 236.248)" fill="white"/>
<path d="M261.963 245.226C262.524 246.726 263.598 248.017 265.125 249.026C266.652 250.035 268.601 250.742 270.861 251.105C273.121 251.469 275.648 251.484 278.297 251.147C280.947 250.811 283.667 250.131 286.302 249.145C288.937 248.16 291.436 246.889 293.656 245.404C295.876 243.92 297.774 242.251 299.241 240.493C300.708 238.736 301.715 236.924 302.205 235.161C302.695 233.398 302.659 231.718 302.098 230.218L282.03 237.722L261.963 245.226Z" fill="#26773B"/>
<ellipse cx="194.706" cy="238.155" rx="98.1644" ry="11" transform="rotate(4.19707 194.706 238.155)" fill="#26773B"/>
<ellipse cx="229.263" cy="246.02" rx="59.7517" ry="8.5" transform="rotate(0.792609 229.263 246.02)" fill="#26773B"/>
<ellipse cx="155.811" cy="238.822" rx="59.0903" ry="9.48463" transform="rotate(11.0834 155.811 238.822)" fill="#26773B"/>
<ellipse cx="188.214" cy="276.631" rx="61.0536" ry="10.558" transform="rotate(5.52475 188.214 276.631)" fill="#26773B"/>
<path d="M323.034 212V177.091H336.807C339.443 177.091 341.693 177.562 343.557 178.506C345.432 179.437 346.858 180.761 347.835 182.477C348.824 184.182 349.318 186.187 349.318 188.494C349.318 190.812 348.818 192.807 347.818 194.477C346.818 196.136 345.369 197.409 343.472 198.295C341.585 199.182 339.301 199.625 336.619 199.625H327.398V193.693H335.426C336.835 193.693 338.006 193.5 338.938 193.114C339.869 192.727 340.563 192.148 341.017 191.375C341.483 190.602 341.716 189.642 341.716 188.494C341.716 187.335 341.483 186.358 341.017 185.562C340.563 184.767 339.864 184.165 338.92 183.756C337.989 183.335 336.813 183.125 335.392 183.125H330.415V212H323.034ZM341.886 196.114L350.562 212H342.415L333.926 196.114H341.886ZM361.864 212.494C360.193 212.494 358.705 212.205 357.398 211.625C356.091 211.034 355.057 210.165 354.295 209.017C353.545 207.858 353.17 206.415 353.17 204.688C353.17 203.233 353.438 202.011 353.972 201.023C354.506 200.034 355.233 199.239 356.153 198.636C357.074 198.034 358.119 197.58 359.29 197.273C360.472 196.966 361.71 196.75 363.006 196.625C364.528 196.466 365.756 196.318 366.688 196.182C367.619 196.034 368.295 195.818 368.716 195.534C369.136 195.25 369.347 194.83 369.347 194.273V194.17C369.347 193.091 369.006 192.256 368.324 191.665C367.653 191.074 366.699 190.778 365.46 190.778C364.153 190.778 363.114 191.068 362.341 191.648C361.568 192.216 361.057 192.932 360.807 193.795L354.091 193.25C354.432 191.659 355.102 190.284 356.102 189.125C357.102 187.955 358.392 187.057 359.972 186.432C361.563 185.795 363.403 185.477 365.494 185.477C366.949 185.477 368.341 185.648 369.67 185.989C371.011 186.33 372.199 186.858 373.233 187.574C374.278 188.29 375.102 189.21 375.705 190.335C376.307 191.449 376.608 192.784 376.608 194.341V212H369.722V208.369H369.517C369.097 209.188 368.534 209.909 367.83 210.534C367.125 211.148 366.278 211.631 365.29 211.983C364.301 212.324 363.159 212.494 361.864 212.494ZM363.943 207.483C365.011 207.483 365.955 207.273 366.773 206.852C367.591 206.42 368.233 205.841 368.699 205.114C369.165 204.386 369.398 203.562 369.398 202.642V199.864C369.17 200.011 368.858 200.148 368.46 200.273C368.074 200.386 367.636 200.494 367.148 200.597C366.659 200.687 366.17 200.773 365.682 200.852C365.193 200.92 364.75 200.983 364.352 201.04C363.5 201.165 362.756 201.364 362.119 201.636C361.483 201.909 360.989 202.278 360.636 202.744C360.284 203.199 360.108 203.767 360.108 204.449C360.108 205.438 360.466 206.193 361.182 206.716C361.909 207.227 362.83 207.483 363.943 207.483ZM389.503 196.864V212H382.241V185.818H389.162V190.438H389.469C390.048 188.915 391.02 187.71 392.384 186.824C393.747 185.926 395.401 185.477 397.344 185.477C399.162 185.477 400.747 185.875 402.099 186.67C403.452 187.466 404.503 188.602 405.253 190.08C406.003 191.545 406.378 193.295 406.378 195.33V212H399.116V196.625C399.128 195.023 398.719 193.773 397.889 192.875C397.06 191.966 395.918 191.511 394.463 191.511C393.486 191.511 392.622 191.722 391.872 192.142C391.134 192.562 390.554 193.176 390.134 193.983C389.724 194.778 389.514 195.739 389.503 196.864ZM421.749 212.426C419.76 212.426 417.959 211.915 416.345 210.892C414.743 209.858 413.47 208.341 412.527 206.341C411.595 204.33 411.129 201.864 411.129 198.943C411.129 195.943 411.612 193.449 412.578 191.46C413.544 189.46 414.828 187.966 416.43 186.977C418.044 185.977 419.811 185.477 421.732 185.477C423.197 185.477 424.419 185.727 425.396 186.227C426.385 186.716 427.18 187.33 427.783 188.068C428.396 188.795 428.862 189.511 429.18 190.216H429.402V177.091H436.646V212H429.487V207.807H429.18C428.839 208.534 428.357 209.256 427.732 209.972C427.118 210.676 426.317 211.261 425.328 211.727C424.351 212.193 423.158 212.426 421.749 212.426ZM424.05 206.648C425.22 206.648 426.209 206.33 427.016 205.693C427.834 205.045 428.459 204.142 428.891 202.983C429.334 201.824 429.555 200.466 429.555 198.909C429.555 197.352 429.339 196 428.908 194.852C428.476 193.705 427.851 192.818 427.033 192.193C426.214 191.568 425.22 191.256 424.05 191.256C422.857 191.256 421.851 191.58 421.033 192.227C420.214 192.875 419.595 193.773 419.175 194.92C418.754 196.068 418.544 197.398 418.544 198.909C418.544 200.432 418.754 201.778 419.175 202.949C419.607 204.108 420.226 205.017 421.033 205.676C421.851 206.324 422.857 206.648 424.05 206.648ZM454.446 212.511C451.798 212.511 449.509 211.949 447.577 210.824C445.656 209.687 444.173 208.108 443.128 206.085C442.082 204.051 441.56 201.693 441.56 199.011C441.56 196.307 442.082 193.943 443.128 191.92C444.173 189.886 445.656 188.307 447.577 187.182C449.509 186.045 451.798 185.477 454.446 185.477C457.094 185.477 459.378 186.045 461.298 187.182C463.23 188.307 464.719 189.886 465.764 191.92C466.81 193.943 467.332 196.307 467.332 199.011C467.332 201.693 466.81 204.051 465.764 206.085C464.719 208.108 463.23 209.687 461.298 210.824C459.378 211.949 457.094 212.511 454.446 212.511ZM454.48 206.886C455.685 206.886 456.69 206.545 457.497 205.864C458.304 205.17 458.912 204.227 459.321 203.034C459.741 201.841 459.952 200.483 459.952 198.96C459.952 197.438 459.741 196.08 459.321 194.886C458.912 193.693 458.304 192.75 457.497 192.057C456.69 191.364 455.685 191.017 454.48 191.017C453.264 191.017 452.241 191.364 451.412 192.057C450.594 192.75 449.974 193.693 449.554 194.886C449.145 196.08 448.94 197.438 448.94 198.96C448.94 200.483 449.145 201.841 449.554 203.034C449.974 204.227 450.594 205.17 451.412 205.864C452.241 206.545 453.264 206.886 454.48 206.886ZM472.19 177.091H481.293L490.906 200.545H491.315L500.929 177.091H510.031V212H502.872V189.278H502.582L493.548 211.83H488.673L479.639 189.193H479.349V212H472.19V177.091ZM523.442 212.494C521.771 212.494 520.283 212.205 518.976 211.625C517.669 211.034 516.635 210.165 515.874 209.017C515.124 207.858 514.749 206.415 514.749 204.688C514.749 203.233 515.016 202.011 515.55 201.023C516.084 200.034 516.811 199.239 517.732 198.636C518.652 198.034 519.697 197.58 520.868 197.273C522.05 196.966 523.288 196.75 524.584 196.625C526.107 196.466 527.334 196.318 528.266 196.182C529.197 196.034 529.874 195.818 530.294 195.534C530.714 195.25 530.925 194.83 530.925 194.273V194.17C530.925 193.091 530.584 192.256 529.902 191.665C529.232 191.074 528.277 190.778 527.038 190.778C525.732 190.778 524.692 191.068 523.919 191.648C523.146 192.216 522.635 192.932 522.385 193.795L515.669 193.25C516.01 191.659 516.68 190.284 517.68 189.125C518.68 187.955 519.97 187.057 521.55 186.432C523.141 185.795 524.982 185.477 527.072 185.477C528.527 185.477 529.919 185.648 531.249 185.989C532.589 186.33 533.777 186.858 534.811 187.574C535.857 188.29 536.68 189.21 537.283 190.335C537.885 191.449 538.186 192.784 538.186 194.341V212H531.3V208.369H531.095C530.675 209.188 530.112 209.909 529.408 210.534C528.703 211.148 527.857 211.631 526.868 211.983C525.879 212.324 524.737 212.494 523.442 212.494ZM525.521 207.483C526.589 207.483 527.533 207.273 528.351 206.852C529.169 206.42 529.811 205.841 530.277 205.114C530.743 204.386 530.976 203.562 530.976 202.642V199.864C530.749 200.011 530.436 200.148 530.038 200.273C529.652 200.386 529.214 200.494 528.726 200.597C528.237 200.687 527.749 200.773 527.26 200.852C526.771 200.92 526.328 200.983 525.93 201.04C525.078 201.165 524.334 201.364 523.697 201.636C523.061 201.909 522.567 202.278 522.214 202.744C521.862 203.199 521.686 203.767 521.686 204.449C521.686 205.438 522.044 206.193 522.76 206.716C523.487 207.227 524.408 207.483 525.521 207.483ZM543.82 212V185.818H550.859V190.386H551.132C551.609 188.761 552.411 187.534 553.536 186.705C554.661 185.864 555.956 185.443 557.422 185.443C557.786 185.443 558.178 185.466 558.598 185.511C559.018 185.557 559.388 185.619 559.706 185.699V192.142C559.365 192.04 558.893 191.949 558.291 191.869C557.689 191.79 557.138 191.75 556.638 191.75C555.57 191.75 554.615 191.983 553.774 192.449C552.945 192.903 552.286 193.54 551.797 194.358C551.32 195.176 551.081 196.119 551.081 197.188V212H543.82ZM563.46 212V185.818H570.5V190.386H570.773C571.25 188.761 572.051 187.534 573.176 186.705C574.301 185.864 575.597 185.443 577.062 185.443C577.426 185.443 577.818 185.466 578.239 185.511C578.659 185.557 579.028 185.619 579.347 185.699V192.142C579.006 192.04 578.534 191.949 577.932 191.869C577.33 191.79 576.778 191.75 576.278 191.75C575.21 191.75 574.256 191.983 573.415 192.449C572.585 192.903 571.926 193.54 571.438 194.358C570.96 195.176 570.722 196.119 570.722 197.188V212H563.46ZM593.814 212.511C591.121 212.511 588.803 211.966 586.859 210.875C584.928 209.773 583.439 208.216 582.393 206.205C581.348 204.182 580.825 201.79 580.825 199.028C580.825 196.335 581.348 193.972 582.393 191.938C583.439 189.903 584.911 188.318 586.808 187.182C588.717 186.045 590.956 185.477 593.524 185.477C595.251 185.477 596.859 185.756 598.348 186.312C599.848 186.858 601.155 187.682 602.268 188.784C603.393 189.886 604.268 191.273 604.893 192.943C605.518 194.602 605.831 196.545 605.831 198.773V200.767H583.723V196.267H598.996C598.996 195.222 598.768 194.295 598.314 193.489C597.859 192.682 597.229 192.051 596.422 191.597C595.626 191.131 594.7 190.898 593.643 190.898C592.541 190.898 591.564 191.153 590.712 191.665C589.871 192.165 589.212 192.841 588.734 193.693C588.257 194.534 588.013 195.472 588.001 196.506V200.784C588.001 202.08 588.24 203.199 588.717 204.142C589.206 205.085 589.893 205.812 590.78 206.324C591.666 206.835 592.717 207.091 593.933 207.091C594.74 207.091 595.479 206.977 596.149 206.75C596.82 206.523 597.393 206.182 597.871 205.727C598.348 205.273 598.712 204.716 598.962 204.057L605.678 204.5C605.337 206.114 604.638 207.523 603.581 208.727C602.536 209.92 601.183 210.852 599.524 211.523C597.876 212.182 595.973 212.511 593.814 212.511Z" fill="#26773B"/>
<ellipse cx="276" cy="237" rx="15" ry="5" fill="#26773B"/>
<ellipse cx="99.8332" cy="205.088" rx="6.78082" ry="28.3526" transform="rotate(2.75892 99.8332 205.088)" fill="#26773B"/>
<path d="M328.311 230.273V232.091H323.055V230.273H328.311ZM324.249 228.182H326.669V236.318C326.669 236.542 326.703 236.716 326.771 236.841C326.839 236.962 326.934 237.047 327.055 237.097C327.18 237.146 327.324 237.17 327.487 237.17C327.601 237.17 327.714 237.161 327.828 237.142C327.942 237.119 328.029 237.102 328.089 237.091L328.47 238.892C328.349 238.93 328.179 238.973 327.959 239.023C327.739 239.076 327.472 239.108 327.158 239.119C326.574 239.142 326.063 239.064 325.624 238.886C325.188 238.708 324.849 238.432 324.607 238.057C324.364 237.682 324.245 237.208 324.249 236.636V228.182ZM331.445 227.364V231.784H329.717V227.364H331.445ZM337.209 239.17C336.311 239.17 335.538 238.989 334.891 238.625C334.247 238.258 333.75 237.739 333.402 237.068C333.054 236.394 332.879 235.597 332.879 234.676C332.879 233.778 333.054 232.991 333.402 232.312C333.75 231.634 334.241 231.106 334.874 230.727C335.51 230.348 336.256 230.159 337.112 230.159C337.688 230.159 338.224 230.252 338.72 230.438C339.22 230.619 339.656 230.894 340.027 231.261C340.402 231.629 340.694 232.091 340.902 232.648C341.11 233.201 341.214 233.848 341.214 234.591V235.256H333.845V233.756H338.936C338.936 233.407 338.86 233.098 338.709 232.83C338.557 232.561 338.347 232.35 338.078 232.199C337.813 232.044 337.504 231.966 337.152 231.966C336.785 231.966 336.459 232.051 336.175 232.222C335.894 232.388 335.675 232.614 335.516 232.898C335.357 233.178 335.275 233.491 335.271 233.835V235.261C335.271 235.693 335.351 236.066 335.51 236.381C335.673 236.695 335.902 236.938 336.197 237.108C336.493 237.278 336.843 237.364 337.249 237.364C337.518 237.364 337.764 237.326 337.987 237.25C338.211 237.174 338.402 237.061 338.561 236.909C338.72 236.758 338.841 236.572 338.925 236.352L341.163 236.5C341.05 237.038 340.817 237.508 340.464 237.909C340.116 238.307 339.665 238.617 339.112 238.841C338.563 239.061 337.929 239.17 337.209 239.17ZM345.214 233.955V239H342.794V230.273H345.101V231.812H345.203C345.396 231.305 345.72 230.903 346.175 230.608C346.629 230.309 347.18 230.159 347.828 230.159C348.434 230.159 348.963 230.292 349.413 230.557C349.864 230.822 350.214 231.201 350.464 231.693C350.714 232.182 350.839 232.765 350.839 233.443V239H348.419V233.875C348.423 233.341 348.286 232.924 348.01 232.625C347.733 232.322 347.353 232.17 346.868 232.17C346.542 232.17 346.254 232.241 346.004 232.381C345.758 232.521 345.565 232.725 345.425 232.994C345.288 233.259 345.218 233.58 345.214 233.955ZM358.939 239.165C358.382 239.165 357.886 239.068 357.45 238.875C357.015 238.678 356.67 238.388 356.416 238.006C356.166 237.619 356.041 237.138 356.041 236.562C356.041 236.078 356.13 235.67 356.308 235.341C356.486 235.011 356.729 234.746 357.036 234.545C357.342 234.345 357.691 234.193 358.081 234.091C358.475 233.989 358.888 233.917 359.32 233.875C359.827 233.822 360.236 233.773 360.547 233.727C360.857 233.678 361.083 233.606 361.223 233.511C361.363 233.417 361.433 233.277 361.433 233.091V233.057C361.433 232.697 361.32 232.419 361.092 232.222C360.869 232.025 360.551 231.926 360.138 231.926C359.702 231.926 359.356 232.023 359.098 232.216C358.84 232.405 358.67 232.644 358.587 232.932L356.348 232.75C356.462 232.22 356.685 231.761 357.018 231.375C357.352 230.985 357.782 230.686 358.308 230.477C358.839 230.265 359.452 230.159 360.149 230.159C360.634 230.159 361.098 230.216 361.541 230.33C361.988 230.443 362.384 230.619 362.729 230.858C363.077 231.097 363.352 231.403 363.553 231.778C363.753 232.15 363.854 232.595 363.854 233.114V239H361.558V237.79H361.49C361.35 238.062 361.162 238.303 360.928 238.511C360.693 238.716 360.411 238.877 360.081 238.994C359.751 239.108 359.371 239.165 358.939 239.165ZM359.632 237.494C359.988 237.494 360.303 237.424 360.575 237.284C360.848 237.14 361.062 236.947 361.217 236.705C361.373 236.462 361.45 236.187 361.45 235.881V234.955C361.375 235.004 361.27 235.049 361.138 235.091C361.009 235.129 360.863 235.165 360.7 235.199C360.537 235.229 360.375 235.258 360.212 235.284C360.049 235.307 359.901 235.328 359.768 235.347C359.484 235.388 359.236 235.455 359.024 235.545C358.812 235.636 358.647 235.759 358.53 235.915C358.412 236.066 358.354 236.256 358.354 236.483C358.354 236.812 358.473 237.064 358.712 237.239C358.954 237.409 359.261 237.494 359.632 237.494ZM372.993 232.761L370.777 232.898C370.739 232.708 370.658 232.538 370.533 232.386C370.408 232.231 370.243 232.108 370.038 232.017C369.838 231.922 369.597 231.875 369.317 231.875C368.942 231.875 368.625 231.955 368.368 232.114C368.11 232.269 367.982 232.477 367.982 232.739C367.982 232.947 368.065 233.123 368.232 233.267C368.398 233.411 368.684 233.527 369.089 233.614L370.669 233.932C371.518 234.106 372.15 234.386 372.567 234.773C372.983 235.159 373.192 235.667 373.192 236.295C373.192 236.867 373.023 237.369 372.686 237.801C372.353 238.233 371.894 238.57 371.311 238.812C370.732 239.051 370.063 239.17 369.305 239.17C368.15 239.17 367.23 238.93 366.544 238.449C365.862 237.964 365.463 237.305 365.345 236.472L367.726 236.347C367.798 236.699 367.972 236.968 368.249 237.153C368.525 237.335 368.879 237.426 369.311 237.426C369.735 237.426 370.076 237.345 370.334 237.182C370.595 237.015 370.728 236.801 370.732 236.54C370.728 236.32 370.635 236.14 370.453 236C370.271 235.856 369.991 235.746 369.612 235.67L368.101 235.369C367.249 235.199 366.614 234.903 366.197 234.483C365.785 234.062 365.578 233.527 365.578 232.875C365.578 232.314 365.73 231.831 366.033 231.426C366.339 231.021 366.769 230.708 367.322 230.489C367.879 230.269 368.531 230.159 369.277 230.159C370.379 230.159 371.247 230.392 371.879 230.858C372.516 231.324 372.887 231.958 372.993 232.761ZM378.419 230.273H380.839V239.432C380.839 240.106 380.707 240.652 380.442 241.068C380.177 241.485 379.796 241.79 379.3 241.983C378.807 242.176 378.218 242.273 377.533 242.273C377.449 242.273 377.37 242.271 377.294 242.267C377.214 242.267 377.131 242.265 377.044 242.261V240.369C377.108 240.373 377.165 240.375 377.214 240.375C377.26 240.379 377.309 240.381 377.362 240.381C377.752 240.381 378.025 240.297 378.18 240.131C378.339 239.968 378.419 239.722 378.419 239.392V230.273ZM379.624 229.148C379.268 229.148 378.961 229.028 378.703 228.79C378.446 228.547 378.317 228.258 378.317 227.92C378.317 227.587 378.446 227.301 378.703 227.062C378.961 226.82 379.268 226.699 379.624 226.699C379.987 226.699 380.296 226.82 380.55 227.062C380.807 227.301 380.936 227.587 380.936 227.92C380.936 228.258 380.807 228.547 380.55 228.79C380.296 229.028 379.987 229.148 379.624 229.148ZM385.267 239.165C384.71 239.165 384.214 239.068 383.778 238.875C383.343 238.678 382.998 238.388 382.744 238.006C382.494 237.619 382.369 237.138 382.369 236.562C382.369 236.078 382.458 235.67 382.636 235.341C382.814 235.011 383.057 234.746 383.364 234.545C383.67 234.345 384.019 234.193 384.409 234.091C384.803 233.989 385.216 233.917 385.648 233.875C386.155 233.822 386.564 233.773 386.875 233.727C387.186 233.678 387.411 233.606 387.551 233.511C387.691 233.417 387.761 233.277 387.761 233.091V233.057C387.761 232.697 387.648 232.419 387.42 232.222C387.197 232.025 386.879 231.926 386.466 231.926C386.03 231.926 385.684 232.023 385.426 232.216C385.169 232.405 384.998 232.644 384.915 232.932L382.676 232.75C382.79 232.22 383.013 231.761 383.347 231.375C383.68 230.985 384.11 230.686 384.636 230.477C385.167 230.265 385.78 230.159 386.477 230.159C386.962 230.159 387.426 230.216 387.869 230.33C388.316 230.443 388.712 230.619 389.057 230.858C389.405 231.097 389.68 231.403 389.881 231.778C390.081 232.15 390.182 232.595 390.182 233.114V239H387.886V237.79H387.818C387.678 238.062 387.491 238.303 387.256 238.511C387.021 238.716 386.739 238.877 386.409 238.994C386.08 239.108 385.699 239.165 385.267 239.165ZM385.96 237.494C386.316 237.494 386.631 237.424 386.903 237.284C387.176 237.14 387.39 236.947 387.545 236.705C387.701 236.462 387.778 236.187 387.778 235.881V234.955C387.703 235.004 387.598 235.049 387.466 235.091C387.337 235.129 387.191 235.165 387.028 235.199C386.866 235.229 386.703 235.258 386.54 235.284C386.377 235.307 386.229 235.328 386.097 235.347C385.813 235.388 385.564 235.455 385.352 235.545C385.14 235.636 384.975 235.759 384.858 235.915C384.741 236.066 384.682 236.256 384.682 236.483C384.682 236.812 384.801 237.064 385.04 237.239C385.282 237.409 385.589 237.494 385.96 237.494ZM392.06 239V230.273H394.366V231.812H394.469C394.651 231.301 394.954 230.898 395.378 230.602C395.802 230.307 396.31 230.159 396.901 230.159C397.499 230.159 398.009 230.309 398.429 230.608C398.849 230.903 399.13 231.305 399.27 231.812H399.361C399.539 231.312 399.861 230.913 400.327 230.614C400.796 230.311 401.351 230.159 401.991 230.159C402.806 230.159 403.467 230.419 403.974 230.938C404.486 231.453 404.741 232.184 404.741 233.131V239H402.327V233.608C402.327 233.123 402.198 232.759 401.94 232.517C401.683 232.275 401.361 232.153 400.974 232.153C400.535 232.153 400.192 232.294 399.946 232.574C399.7 232.85 399.577 233.216 399.577 233.67V239H397.23V233.557C397.23 233.129 397.107 232.788 396.861 232.534C396.618 232.28 396.298 232.153 395.901 232.153C395.632 232.153 395.389 232.222 395.173 232.358C394.961 232.491 394.793 232.678 394.668 232.92C394.543 233.159 394.48 233.439 394.48 233.761V239H392.06ZM409.142 239.165C408.585 239.165 408.089 239.068 407.653 238.875C407.218 238.678 406.873 238.388 406.619 238.006C406.369 237.619 406.244 237.138 406.244 236.562C406.244 236.078 406.333 235.67 406.511 235.341C406.689 235.011 406.932 234.746 407.239 234.545C407.545 234.345 407.894 234.193 408.284 234.091C408.678 233.989 409.091 233.917 409.523 233.875C410.03 233.822 410.439 233.773 410.75 233.727C411.061 233.678 411.286 233.606 411.426 233.511C411.566 233.417 411.636 233.277 411.636 233.091V233.057C411.636 232.697 411.523 232.419 411.295 232.222C411.072 232.025 410.754 231.926 410.341 231.926C409.905 231.926 409.559 232.023 409.301 232.216C409.044 232.405 408.873 232.644 408.79 232.932L406.551 232.75C406.665 232.22 406.888 231.761 407.222 231.375C407.555 230.985 407.985 230.686 408.511 230.477C409.042 230.265 409.655 230.159 410.352 230.159C410.837 230.159 411.301 230.216 411.744 230.33C412.191 230.443 412.587 230.619 412.932 230.858C413.28 231.097 413.555 231.403 413.756 231.778C413.956 232.15 414.057 232.595 414.057 233.114V239H411.761V237.79H411.693C411.553 238.062 411.366 238.303 411.131 238.511C410.896 238.716 410.614 238.877 410.284 238.994C409.955 239.108 409.574 239.165 409.142 239.165ZM409.835 237.494C410.191 237.494 410.506 237.424 410.778 237.284C411.051 237.14 411.265 236.947 411.42 236.705C411.576 236.462 411.653 236.187 411.653 235.881V234.955C411.578 235.004 411.473 235.049 411.341 235.091C411.212 235.129 411.066 235.165 410.903 235.199C410.741 235.229 410.578 235.258 410.415 235.284C410.252 235.307 410.104 235.328 409.972 235.347C409.688 235.388 409.439 235.455 409.227 235.545C409.015 235.636 408.85 235.759 408.733 235.915C408.616 236.066 408.557 236.256 408.557 236.483C408.557 236.812 408.676 237.064 408.915 237.239C409.157 237.409 409.464 237.494 409.835 237.494ZM415.935 239V230.273H418.355V239H415.935ZM417.151 229.148C416.791 229.148 416.482 229.028 416.224 228.79C415.971 228.547 415.844 228.258 415.844 227.92C415.844 227.587 415.971 227.301 416.224 227.062C416.482 226.82 416.791 226.699 417.151 226.699C417.51 226.699 417.817 226.82 418.071 227.062C418.329 227.301 418.457 227.587 418.457 227.92C418.457 228.258 418.329 228.547 418.071 228.79C417.817 229.028 417.51 229.148 417.151 229.148ZM427.555 232.761L425.339 232.898C425.302 232.708 425.22 232.538 425.095 232.386C424.97 232.231 424.805 232.108 424.601 232.017C424.4 231.922 424.16 231.875 423.879 231.875C423.504 231.875 423.188 231.955 422.93 232.114C422.673 232.269 422.544 232.477 422.544 232.739C422.544 232.947 422.627 233.123 422.794 233.267C422.961 233.411 423.247 233.527 423.652 233.614L425.232 233.932C426.08 234.106 426.713 234.386 427.129 234.773C427.546 235.159 427.754 235.667 427.754 236.295C427.754 236.867 427.586 237.369 427.249 237.801C426.915 238.233 426.457 238.57 425.874 238.812C425.294 239.051 424.625 239.17 423.868 239.17C422.713 239.17 421.792 238.93 421.107 238.449C420.425 237.964 420.025 237.305 419.908 236.472L422.288 236.347C422.36 236.699 422.535 236.968 422.811 237.153C423.088 237.335 423.442 237.426 423.874 237.426C424.298 237.426 424.639 237.345 424.896 237.182C425.158 237.015 425.29 236.801 425.294 236.54C425.29 236.32 425.197 236.14 425.016 236C424.834 235.856 424.554 235.746 424.175 235.67L422.663 235.369C421.811 235.199 421.177 234.903 420.76 234.483C420.347 234.062 420.141 233.527 420.141 232.875C420.141 232.314 420.292 231.831 420.595 231.426C420.902 231.021 421.332 230.708 421.885 230.489C422.442 230.269 423.093 230.159 423.839 230.159C424.942 230.159 425.809 230.392 426.442 230.858C427.078 231.324 427.449 231.958 427.555 232.761ZM432.982 239V230.273H435.288V231.812H435.391C435.572 231.301 435.875 230.898 436.3 230.602C436.724 230.307 437.232 230.159 437.822 230.159C438.421 230.159 438.93 230.309 439.351 230.608C439.771 230.903 440.052 231.305 440.192 231.812H440.283C440.461 231.312 440.783 230.913 441.249 230.614C441.718 230.311 442.273 230.159 442.913 230.159C443.728 230.159 444.389 230.419 444.896 230.938C445.408 231.453 445.663 232.184 445.663 233.131V239H443.249V233.608C443.249 233.123 443.12 232.759 442.862 232.517C442.605 232.275 442.283 232.153 441.896 232.153C441.457 232.153 441.114 232.294 440.868 232.574C440.622 232.85 440.499 233.216 440.499 233.67V239H438.152V233.557C438.152 233.129 438.029 232.788 437.783 232.534C437.54 232.28 437.22 232.153 436.822 232.153C436.554 232.153 436.311 232.222 436.095 232.358C435.883 232.491 435.714 232.678 435.589 232.92C435.464 233.159 435.402 233.439 435.402 233.761V239H432.982ZM450.064 239.165C449.507 239.165 449.011 239.068 448.575 238.875C448.14 238.678 447.795 238.388 447.541 238.006C447.291 237.619 447.166 237.138 447.166 236.562C447.166 236.078 447.255 235.67 447.433 235.341C447.611 235.011 447.854 234.746 448.161 234.545C448.467 234.345 448.816 234.193 449.206 234.091C449.6 233.989 450.013 233.917 450.445 233.875C450.952 233.822 451.361 233.773 451.672 233.727C451.982 233.678 452.208 233.606 452.348 233.511C452.488 233.417 452.558 233.277 452.558 233.091V233.057C452.558 232.697 452.445 232.419 452.217 232.222C451.994 232.025 451.676 231.926 451.263 231.926C450.827 231.926 450.481 232.023 450.223 232.216C449.965 232.405 449.795 232.644 449.712 232.932L447.473 232.75C447.587 232.22 447.81 231.761 448.143 231.375C448.477 230.985 448.907 230.686 449.433 230.477C449.964 230.265 450.577 230.159 451.274 230.159C451.759 230.159 452.223 230.216 452.666 230.33C453.113 230.443 453.509 230.619 453.854 230.858C454.202 231.097 454.477 231.403 454.678 231.778C454.878 232.15 454.979 232.595 454.979 233.114V239H452.683V237.79H452.615C452.475 238.062 452.287 238.303 452.053 238.511C451.818 238.716 451.536 238.877 451.206 238.994C450.876 239.108 450.496 239.165 450.064 239.165ZM450.757 237.494C451.113 237.494 451.428 237.424 451.7 237.284C451.973 237.14 452.187 236.947 452.342 236.705C452.498 236.462 452.575 236.187 452.575 235.881V234.955C452.5 235.004 452.395 235.049 452.263 235.091C452.134 235.129 451.988 235.165 451.825 235.199C451.662 235.229 451.5 235.258 451.337 235.284C451.174 235.307 451.026 235.328 450.893 235.347C450.609 235.388 450.361 235.455 450.149 235.545C449.937 235.636 449.772 235.759 449.655 235.915C449.537 236.066 449.479 236.256 449.479 236.483C449.479 236.812 449.598 237.064 449.837 237.239C450.079 237.409 450.386 237.494 450.757 237.494ZM456.857 239V230.273H459.203V231.795H459.294C459.453 231.254 459.72 230.845 460.095 230.568C460.47 230.288 460.902 230.148 461.391 230.148C461.512 230.148 461.643 230.155 461.783 230.17C461.923 230.186 462.046 230.206 462.152 230.233V232.381C462.038 232.347 461.881 232.316 461.68 232.29C461.48 232.263 461.296 232.25 461.129 232.25C460.773 232.25 460.455 232.328 460.175 232.483C459.898 232.634 459.679 232.847 459.516 233.119C459.357 233.392 459.277 233.706 459.277 234.062V239H456.857ZM463.403 239V230.273H465.75V231.795H465.841C466 231.254 466.267 230.845 466.642 230.568C467.017 230.288 467.449 230.148 467.938 230.148C468.059 230.148 468.189 230.155 468.33 230.17C468.47 230.186 468.593 230.206 468.699 230.233V232.381C468.585 232.347 468.428 232.316 468.227 232.29C468.027 232.263 467.843 232.25 467.676 232.25C467.32 232.25 467.002 232.328 466.722 232.483C466.445 232.634 466.225 232.847 466.062 233.119C465.903 233.392 465.824 233.706 465.824 234.062V239H463.403ZM473.521 239.17C472.624 239.17 471.851 238.989 471.203 238.625C470.559 238.258 470.063 237.739 469.714 237.068C469.366 236.394 469.192 235.597 469.192 234.676C469.192 233.778 469.366 232.991 469.714 232.312C470.063 231.634 470.554 231.106 471.186 230.727C471.822 230.348 472.569 230.159 473.425 230.159C474 230.159 474.536 230.252 475.033 230.438C475.533 230.619 475.968 230.894 476.339 231.261C476.714 231.629 477.006 232.091 477.214 232.648C477.423 233.201 477.527 233.848 477.527 234.591V235.256H470.158V233.756H475.249C475.249 233.407 475.173 233.098 475.021 232.83C474.87 232.561 474.66 232.35 474.391 232.199C474.125 232.044 473.817 231.966 473.464 231.966C473.097 231.966 472.771 232.051 472.487 232.222C472.207 232.388 471.987 232.614 471.828 232.898C471.669 233.178 471.588 233.491 471.584 233.835V235.261C471.584 235.693 471.663 236.066 471.822 236.381C471.985 236.695 472.214 236.938 472.51 237.108C472.805 237.278 473.156 237.364 473.561 237.364C473.83 237.364 474.076 237.326 474.3 237.25C474.523 237.174 474.714 237.061 474.874 236.909C475.033 236.758 475.154 236.572 475.237 236.352L477.476 236.5C477.362 237.038 477.129 237.508 476.777 237.909C476.429 238.307 475.978 238.617 475.425 238.841C474.875 239.061 474.241 239.17 473.521 239.17Z" fill="#49A948"/>
</svg>
